<svg width="31" height="15" viewBox="0 0 31 15" fill="none" xmlns="http://www.w3.org/2000/svg">
  <path d="M15.4757 14.9949C14.9592 14.9959 14.4587 14.8216 14.061 14.5023L0.798518 3.79358C0.347114 3.43004 0.0632427 2.90764 0.00935338 2.34131C-0.044536 1.77497 0.135971 1.21109 0.511164 0.773711C0.886357 0.33633 1.4255 0.0612781 2.01 0.00906286C2.59449 -0.0431524 3.17645 0.131746 3.62785 0.495284L15.4757 10.0903L27.3235 0.837965C27.5496 0.660059 27.8098 0.527202 28.089 0.447033C28.3683 0.366863 28.6612 0.340961 28.9508 0.370816C29.2404 0.40067 29.5211 0.485691 29.7767 0.620993C30.0323 0.756296 30.2578 0.939212 30.4402 1.15923C30.6426 1.37944 30.796 1.6378 30.8905 1.91809C30.9851 2.19839 31.019 2.4946 30.9899 2.78815C30.9609 3.08171 30.8696 3.36629 30.7217 3.62406C30.5739 3.88184 30.3727 4.10725 30.1308 4.28618L16.8682 14.6308C16.4591 14.8997 15.9688 15.0279 15.4757 14.9949Z" fill="#CDCDCD"/>
</svg>
