<svg width="64" height="71" viewBox="0 0 64 71" fill="none" xmlns="http://www.w3.org/2000/svg">
  <path d="M42.3791 40.3794L21.524 58.0297L30.3372 44.0554L21.0716 39.7625L42.4462 23.001L33.2428 36.4417L42.3791 40.3794Z" fill="#D1D1D1"/>
  <path d="M12.0249 16.7974C17.6915 12.4799 24.7389 10.1323 32 10.1433C39.5555 10.1433 46.4995 12.6318 51.9751 16.7974L57.1413 11.8846L62.1689 16.6655L57.0027 21.5782C60.7634 26.0553 63.1184 31.4512 63.7966 37.1448C64.4749 42.8385 63.4488 48.5985 60.8365 53.7621C58.2242 58.9258 54.1319 63.2831 49.0304 66.3326C43.929 69.3821 38.0257 71 32 71C25.9743 71 20.071 69.3821 14.9696 66.3326C9.86811 63.2831 5.77576 58.9258 3.16347 53.7621C0.551186 48.5985 -0.474872 42.8385 0.203379 37.1448C0.881629 31.4512 3.23662 26.0553 6.99735 21.5782L1.83113 16.6689L6.85868 11.888L12.0249 16.8007V16.7974ZM32 64.2411C35.2685 64.2411 38.5049 63.6289 41.5246 62.4395C44.5442 61.2501 47.2879 59.5067 49.5991 57.3089C51.9102 55.1112 53.7435 52.5021 54.9943 49.6306C56.2451 46.7591 56.8889 43.6814 56.8889 40.5733C56.8889 37.4652 56.2451 34.3876 54.9943 31.5161C53.7435 28.6445 51.9102 26.0354 49.5991 23.8377C47.2879 21.6399 44.5442 19.8966 41.5246 18.7071C38.5049 17.5177 35.2685 16.9055 32 16.9055C25.3991 16.9055 19.0685 19.3991 14.4009 23.8377C9.73334 28.2762 7.11112 34.2962 7.11112 40.5733C7.11112 46.8504 9.73334 52.8704 14.4009 57.3089C19.0685 61.7475 25.3991 64.2411 32 64.2411ZM17.7778 0H46.2222V6.76222H17.7778V0Z" fill="#D1D1D1"/>
</svg>
