<svg width="29" height="33" viewBox="0 0 29 33" fill="none" xmlns="http://www.w3.org/2000/svg">
<path d="M28.3333 32.9998L20.8958 25.9165L21.7883 28.7498H3.54167C2.60236 28.7498 1.70152 28.3767 1.03733 27.7125C0.373139 27.0483 0 26.1475 0 25.2082V3.95817C0 3.01886 0.373139 2.11803 1.03733 1.45383C1.70152 0.789643 2.60236 0.416504 3.54167 0.416504H24.7917C25.731 0.416504 26.6318 0.789643 27.296 1.45383C27.9602 2.11803 28.3333 3.01886 28.3333 3.95817V32.9998ZM14.1667 8.63317C10.37 8.63317 7.70667 10.2623 7.70667 10.2623C9.16583 8.959 11.7158 8.20817 11.7158 8.20817L11.475 7.96734C9.08083 8.00984 6.91333 9.66734 6.91333 9.66734C4.47667 14.7532 4.6325 19.1448 4.6325 19.1448C6.61583 21.709 9.5625 21.5248 9.5625 21.5248L10.5683 20.2498C8.7975 19.8673 7.67833 18.2948 7.67833 18.2948C7.67833 18.2948 10.3417 20.1082 14.1667 20.1082C17.9917 20.1082 20.655 18.2948 20.655 18.2948C20.655 18.2948 19.5358 19.8673 17.765 20.2498L18.7708 21.5248C18.7708 21.5248 21.7175 21.709 23.7008 19.1448C23.7008 19.1448 23.8567 14.7532 21.42 9.66734C21.42 9.66734 19.2525 8.00984 16.8583 7.96734L16.6175 8.20817C16.6175 8.20817 19.1675 8.959 20.6267 10.2623C20.6267 10.2623 17.9633 8.63317 14.1667 8.63317ZM11.2342 14.0023C12.155 14.0023 12.9058 14.8098 12.8917 15.8015C12.8917 16.779 12.155 17.6007 11.2342 17.6007C10.3275 17.6007 9.59083 16.779 9.59083 15.8015C9.59083 14.8098 10.3133 14.0023 11.2342 14.0023ZM17.1417 14.0023C18.0625 14.0023 18.7992 14.8098 18.7992 15.8015C18.7992 16.779 18.0625 17.6007 17.1417 17.6007C16.235 17.6007 15.4983 16.779 15.4983 15.8015C15.4983 14.8098 16.2208 14.0023 17.1417 14.0023Z" fill="#F5F5F5"/>
</svg>
