<svg width="88" height="69" viewBox="0 0 88 69" fill="none" xmlns="http://www.w3.org/2000/svg">
  <path d="M31.625 63.25C32.5435 61.4185 33 58.6685 33 55H55C55 58.6685 55.4565 61.4185 56.375 63.25H60.5C61.2293 63.25 61.9288 63.5397 62.4445 64.0555C62.9603 64.5712 63.25 65.2707 63.25 66C63.25 66.7293 62.9603 67.4288 62.4445 67.9445C61.9288 68.4603 61.2293 68.75 60.5 68.75H27.5C26.7707 68.75 26.0712 68.4603 25.5555 67.9445C25.0397 67.4288 24.75 66.7293 24.75 66C24.75 65.2707 25.0397 64.5712 25.5555 64.0555C26.0712 63.5397 26.7707 63.25 27.5 63.25H31.625Z" fill="#D1D1D1"/>
  <path fill-rule="evenodd" clip-rule="evenodd" d="M76.9505 5.5H11C9.2125 5.5 8.239 5.929 7.689 6.2975C7.08485 6.71812 6.60285 7.2912 6.292 7.9585C5.82318 8.92717 5.55384 9.98019 5.5 11.055V44C5.5 45.7875 5.929 46.761 6.2975 47.311C6.6825 47.8885 7.2325 48.345 7.9585 48.708C8.88545 49.157 9.88994 49.424 10.9175 49.4945L11.055 49.5H77C78.7875 49.5 79.761 49.071 80.311 48.7025C80.9151 48.2819 81.3971 47.7088 81.708 47.0415C82.157 46.1145 82.424 45.1101 82.4945 44.0825L82.5 43.945V11C82.5 9.2125 82.071 8.239 81.7025 7.689C81.2821 7.08467 80.7089 6.60263 80.0415 6.292C79.0728 5.82317 78.0198 5.55384 76.945 5.5H76.9505ZM77 0H11C0 0 0 11 0 11V44C0 55 11 55 11 55H77C88 55 88 44 88 44V11C88 0 77 0 77 0Z" fill="#D1D1D1"/>
</svg>
