<svg width="46" height="46" viewBox="0 0 46 46" fill="none" xmlns="http://www.w3.org/2000/svg">
  <path d="M45.5 3.03333C45.5 1.51667 43.9833 0 42.4667 0H3.03333C1.51667 0 0 1.51667 0 3.03333V31.85H45.5V3.03333Z" fill="#212528"/>
  <path d="M0 31.8496V34.8829C0 36.3996 1.51667 37.9163 3.03333 37.9163H42.4667C43.9833 37.9163 45.5 36.3996 45.5 34.8829V31.8496H0Z" fill="#DDDDDD"/>
  <path d="M16.6839 39.4327C16.6839 42.466 13.6505 42.466 10.6172 42.466H34.8839C31.8505 42.466 28.8172 42.466 28.8172 39.4327V37.916H16.6839V39.4327Z" fill="#BFBEBE"/>
  <path d="M3.03516 3.0332H42.4685V28.8165H3.03516V3.0332Z" fill="#3E4347"/>
  <path d="M22.7505 35.5655C23.1693 35.5655 23.5089 35.226 23.5089 34.8072C23.5089 34.3883 23.1693 34.0488 22.7505 34.0488C22.3317 34.0488 21.9922 34.3883 21.9922 34.8072C21.9922 35.226 22.3317 35.5655 22.7505 35.5655Z" fill="#94989B"/>
  <path d="M10.6172 42.4668H34.8839V45.5001H10.6172V42.4668Z" fill="#94989B"/>
</svg>
