<svg width="69" height="69" viewBox="0 0 69 69" fill="none" xmlns="http://www.w3.org/2000/svg">
  <path d="M34.5 59.34C25.875 59.34 18.2505 54.924 13.8 48.3C13.9035 41.4 27.6 37.605 34.5 37.605C41.4 37.605 55.0965 41.4 55.2 48.3C52.9192 51.6962 49.8382 54.4795 46.2285 56.4047C42.6188 58.3299 38.591 59.3379 34.5 59.34ZM34.5 10.35C37.245 10.35 39.8776 11.4404 41.8186 13.3814C43.7596 15.3224 44.85 17.955 44.85 20.7C44.85 23.445 43.7596 26.0776 41.8186 28.0186C39.8776 29.9596 37.245 31.05 34.5 31.05C31.755 31.05 29.1224 29.9596 27.1814 28.0186C25.2404 26.0776 24.15 23.445 24.15 20.7C24.15 17.955 25.2404 15.3224 27.1814 13.3814C29.1224 11.4404 31.755 10.35 34.5 10.35ZM34.5 0C29.9694 0 25.4832 0.892369 21.2974 2.62616C17.1117 4.35994 13.3084 6.9012 10.1048 10.1048C3.63481 16.5748 0 25.35 0 34.5C0 43.65 3.63481 52.4252 10.1048 58.8952C13.3084 62.0988 17.1117 64.6401 21.2974 66.3738C25.4832 68.1076 29.9694 69 34.5 69C43.65 69 52.4252 65.3652 58.8952 58.8952C65.3652 52.4252 69 43.65 69 34.5C69 15.4215 53.475 0 34.5 0Z" fill="#D1D1D1"/>
</svg>
