<svg width="17" height="17" viewBox="0 0 17 17" fill="none" xmlns="http://www.w3.org/2000/svg">
  <path d="M11.3045 5.82224L7.28969 9.85106L5.7194 8.27013C5.55957 8.11008 5.34278 8.02017 5.11675 8.02017C4.89071 8.02017 4.67393 8.11008 4.5141 8.27013C4.35426 8.43019 4.26447 8.64726 4.26447 8.87361C4.26447 8.98568 4.28652 9.09666 4.32935 9.2002C4.37218 9.30375 4.43496 9.39783 4.5141 9.47708L6.68703 11.653C6.76594 11.7327 6.85982 11.7959 6.96326 11.839C7.06669 11.8822 7.17763 11.9044 7.28969 11.9044C7.40174 11.9044 7.51268 11.8822 7.61612 11.839C7.71955 11.7959 7.81343 11.7327 7.89234 11.653L12.5098 7.02919C12.589 6.94994 12.6517 6.85586 12.6946 6.75231C12.7374 6.64877 12.7595 6.53779 12.7595 6.42572C12.7595 6.31364 12.7374 6.20266 12.6946 6.09912C12.6517 5.99557 12.589 5.90149 12.5098 5.82224C12.4307 5.74299 12.3367 5.68013 12.2333 5.63724C12.1299 5.59435 12.0191 5.57228 11.9072 5.57228C11.7953 5.57228 11.6844 5.59435 11.581 5.63724C11.4776 5.68013 11.3837 5.74299 11.3045 5.82224ZM8.51196 0C7.3973 0 6.29355 0.219849 5.26373 0.646995C4.23391 1.07414 3.2982 1.70022 2.51001 2.48948C0.918197 4.08347 0.0239247 6.24538 0.0239247 8.49962C0.0165043 10.4623 0.695152 12.3657 1.94222 13.8799L0.244614 15.5798C0.126836 15.6993 0.0470513 15.8511 0.015328 16.016C-0.0163953 16.1809 0.00136394 16.3515 0.0663648 16.5063C0.136865 16.6592 0.251153 16.7877 0.394722 16.8755C0.538291 16.9633 0.704666 17.0063 0.872728 16.9992H8.51196C10.7631 16.9992 12.9221 16.1038 14.5139 14.5098C16.1057 12.9158 17 10.7539 17 8.49962C17 6.24538 16.1057 4.08347 14.5139 2.48948C12.9221 0.895494 10.7631 0 8.51196 0ZM8.51196 15.2993H2.91835L3.70773 14.5089C3.86582 14.3496 3.95456 14.1342 3.95456 13.9096C3.95456 13.6851 3.86582 13.4697 3.70773 13.3104C2.5963 12.1987 1.90417 10.7355 1.74928 9.17007C1.59439 7.60466 1.98631 6.03389 2.85827 4.72538C3.73024 3.41688 5.02829 2.4516 6.53129 1.99399C8.03429 1.53638 9.64924 1.61476 11.101 2.21578C12.5528 2.81679 13.7515 3.90326 14.493 5.29007C15.2345 6.67689 15.4729 8.27825 15.1675 9.82132C14.8622 11.3644 14.032 12.7537 12.8184 13.7526C11.6048 14.7515 10.0829 15.2981 8.51196 15.2993Z" fill="#28A745"/>
</svg>
