<svg width="30" height="29" viewBox="0 0 30 29" fill="none" xmlns="http://www.w3.org/2000/svg">
<path d="M19.6044 0H10.3956C1.99213 0 0 1.92572 0 10.0491V18.9509C0 27.0743 1.99213 29 10.3956 29H19.6044C28.0079 29 30 27.0743 30 18.9509V10.0491C30 1.92572 27.9882 0 19.6044 0ZM24.2186 20.6872H22.0409C21.2159 20.6872 20.9618 20.0547 19.4778 18.6011C18.1888 17.3931 17.6179 17.2327 17.3001 17.2327C16.851 17.2327 16.7235 17.3551 16.7235 17.9504V19.8526C16.7235 20.3628 16.5576 20.6691 15.1608 20.6691C12.8508 20.6691 10.2878 19.3188 8.49067 16.8032C5.78044 13.1167 5.03891 10.3554 5.03891 9.78448C5.03891 9.47727 5.16546 9.18999 5.77576 9.18999H7.95819C8.51036 9.18999 8.72035 9.43558 8.93503 10.0065C10.0141 13.0179 11.8112 15.6559 12.5527 15.6559C12.8265 15.6559 12.953 15.5335 12.953 14.8584V11.7483C12.8696 10.3137 12.0887 10.1905 12.0887 9.68117C12.0887 9.43558 12.2987 9.18999 12.6352 9.18999H16.0673C16.5314 9.18999 16.702 9.43558 16.702 9.96391V14.1597C16.702 14.6128 16.912 14.7732 17.0385 14.7732C17.3123 14.7732 17.5466 14.6128 18.0538 14.1217C19.6213 12.4225 20.7444 9.8026 20.7444 9.8026C20.8906 9.49539 21.1447 9.20812 21.6968 9.20812H23.8793C24.5336 9.20812 24.6799 9.53345 24.5336 9.98656C24.2599 11.2136 21.589 14.8575 21.589 14.8575C21.3593 15.2254 21.2712 15.3858 21.589 15.7964C21.8234 16.1036 22.5855 16.7406 23.0927 17.3116C24.0255 18.3356 24.7427 19.1947 24.9339 19.7892C25.1486 20.3791 24.8317 20.6863 24.2158 20.6863L24.2186 20.6872Z" fill="#F5F5F5"/>
</svg>
